<?xml version="1.0" encoding="UTF-8" standalone="no"?>
<!-- Created with Inkscape (http://www.inkscape.org/) -->

<svg
   width="102.75125mm"
   height="34.60709mm"
   viewBox="0 0 102.75125 34.60709"
   version="1.1"
   id="svg1"
   xmlns="http://www.w3.org/2000/svg"
   xmlns:svg="http://www.w3.org/2000/svg">
  <defs
     id="defs1" />
  <g
     id="layer1"
     transform="translate(-42.217771,-66.156279)">
    <ellipse
       style="fill:#000000;stroke-width:0.0456804"
       id="path4-3-76"
       cx="-2.3538182"
       cy="89.845833"
       rx="0.71265972"
       ry="0.74829268"
       transform="rotate(-35.358256)" />
    <ellipse
       style="fill:#ffffff;stroke-width:0.0496297"
       id="path1-2-5"
       cx="-2.3538182"
       cy="89.845833"
       rx="0.49886176"
       ry="0.51073939"
       transform="rotate(-35.358256)" />
    <path
       style="fill:#000000;stroke:#000000;stroke-width:0.431011;stroke-dasharray:none;stroke-opacity:1"
       d="m 47.098128,76.8469 c 2.573931,-1.826376 2.573931,-1.826376 2.573931,-1.826376"
       id="path5-6" />
    <ellipse
       style="fill:#000000;stroke-width:0.0456804"
       id="path4-3-76-0"
       cx="6.3071561"
       cy="89.794067"
       rx="0.71265972"
       ry="0.74829268"
       transform="rotate(-35.358256)" />
    <ellipse
       style="fill:#ffffff;stroke-width:0.0496297"
       id="path1-2-5-4"
       cx="6.3071561"
       cy="89.794067"
       rx="0.49886176"
       ry="0.51073939"
       transform="rotate(-35.358256)" />
    <path
       style="fill:#000000;stroke:#000000;stroke-width:0.431011;stroke-dasharray:none;stroke-opacity:1"
       d="m 54.131629,71.792689 c 2.573929,-1.826377 2.573929,-1.826377 2.573929,-1.826377"
       id="path5-6-6" />
    <path
       style="fill:#000000;stroke:#000000;stroke-width:0.431011;stroke-dasharray:none;stroke-opacity:1"
       d="M 57.727542,69.230189 C 60.30146,67.403822 60.30146,67.403822 60.30146,67.403822"
       id="path5-6-9" />
    <ellipse
       style="fill:#000000;stroke-width:0.0456804"
       id="path4-3-76-7"
       cx="-6.7624679"
       cy="89.845505"
       rx="0.71265972"
       ry="0.74829268"
       transform="rotate(-35.358256)" />
    <ellipse
       style="fill:#ffffff;stroke-width:0.0496297"
       id="path1-2-5-47"
       cx="-6.7624679"
       cy="89.845505"
       rx="0.49886176"
       ry="0.51073939"
       transform="rotate(-35.358256)" />
    <ellipse
       style="fill:#000000;stroke-width:0.0456804"
       id="path4-3-76-7-5"
       cx="1.9201227"
       cy="89.816856"
       rx="0.71265972"
       ry="0.74829268"
       transform="rotate(-35.358256)" />
    <ellipse
       style="fill:#ffffff;stroke-width:0.0496297"
       id="path1-2-5-47-1"
       cx="1.9201227"
       cy="89.816856"
       rx="0.49886176"
       ry="0.51073939"
       transform="rotate(-35.358256)" />
    <path
       style="fill:#000000;stroke:#000000;stroke-width:0.431011;stroke-dasharray:none;stroke-opacity:1"
       d="m 43.502466,79.397859 c 2.573927,-1.826375 2.573927,-1.826375 2.573927,-1.826375"
       id="path5-6-42" />
    <ellipse
       style="fill:#000000;stroke-width:0.0456804"
       id="path4-3-76-37"
       cx="6.2051487"
       cy="-111.3208"
       rx="0.71265972"
       ry="0.74829268"
       transform="rotate(144.88499)" />
    <ellipse
       style="fill:#ffffff;stroke-width:0.0496297"
       id="path1-2-5-81"
       cx="6.2051487"
       cy="-111.3208"
       rx="0.49886182"
       ry="0.51073939"
       transform="rotate(144.88499)" />
    <path
       style="fill:#000000;stroke:#000000;stroke-width:0.431011;stroke-dasharray:none;stroke-opacity:1"
       d="m 61.942298,92.431261 c -2.581681,1.8154 -2.581681,1.8154 -2.581681,1.8154"
       id="path5-6-88" />
    <ellipse
       style="fill:#000000;stroke-width:0.0456804"
       id="path4-3-76-37-6"
       cx="-89.931747"
       cy="-10.516523"
       rx="0.71265972"
       ry="0.74829268"
       transform="rotate(-124.99025)" />
    <ellipse
       style="fill:#ffffff;stroke-width:0.0496297"
       id="path1-2-5-81-8"
       cx="-89.931747"
       cy="-10.516523"
       rx="0.49886176"
       ry="0.51073939"
       transform="rotate(-124.99025)" />
    <path
       style="fill:#000000;stroke:#000000;stroke-width:0.431011;stroke-dasharray:none;stroke-opacity:1"
       d="M 45.146431,82.696104 C 43.336614,80.110508 43.336614,80.110508 43.336614,80.110508"
       id="path5-6-88-4" />
    <ellipse
       style="fill:#000000;stroke-width:0.0456804"
       id="path4-3-76-37-6-4"
       cx="-94.035324"
       cy="-10.506701"
       rx="0.71265972"
       ry="0.74829268"
       transform="rotate(-124.99025)" />
    <ellipse
       style="fill:#ffffff;stroke-width:0.0496297"
       id="path1-2-5-81-8-8"
       cx="-94.035324"
       cy="-10.506701"
       rx="0.49886176"
       ry="0.51073939"
       transform="rotate(-124.99025)" />
    <path
       style="fill:#000000;stroke:#000000;stroke-width:0.431011;stroke-dasharray:none;stroke-opacity:1"
       d="M 47.507611,86.052324 C 45.697793,83.466728 45.697793,83.466728 45.697793,83.466728"
       id="path5-6-88-4-9" />
    <ellipse
       style="fill:#000000;stroke-width:0.0456804"
       id="path4-3-76-37-6-2"
       cx="-98.448494"
       cy="-10.450264"
       rx="0.71265972"
       ry="0.74829268"
       transform="rotate(-124.99025)" />
    <ellipse
       style="fill:#ffffff;stroke-width:0.0496297"
       id="path1-2-5-81-8-0"
       cx="-98.448494"
       cy="-10.450264"
       rx="0.49886176"
       ry="0.51073939"
       transform="rotate(-124.99025)" />
    <path
       style="fill:#000000;stroke:#000000;stroke-width:0.431011;stroke-dasharray:none;stroke-opacity:1"
       d="M 50.084516,89.635455 C 48.274699,87.049859 48.274699,87.049859 48.274699,87.049859"
       id="path5-6-88-4-94" />
    <ellipse
       style="fill:#000000;stroke-width:0.0456804"
       id="path4-3-76-37-6-2-12"
       cx="-93.869095"
       cy="-1.7732601"
       rx="0.71265972"
       ry="0.74829268"
       transform="rotate(-124.99025)" />
    <ellipse
       style="fill:#ffffff;stroke-width:0.0496297"
       id="path1-2-5-81-8-0-5"
       cx="-93.869095"
       cy="-1.7732601"
       rx="0.49886176"
       ry="0.51073939"
       transform="rotate(-124.99025)" />
    <path
       style="fill:#000000;stroke:#000000;stroke-width:0.431011;stroke-dasharray:none;stroke-opacity:1"
       d="M 54.567165,80.908055 C 52.757353,78.322454 52.757353,78.322454 52.757353,78.322454"
       id="path5-6-88-4-94-2" />
    <ellipse
       style="fill:#000000;stroke-width:0.0456804"
       id="path4-3-76-37-6-2-3"
       cx="-102.52706"
       cy="-10.426153"
       rx="0.71265972"
       ry="0.74829268"
       transform="rotate(-124.99025)" />
    <ellipse
       style="fill:#ffffff;stroke-width:0.0496297"
       id="path1-2-5-81-8-0-1"
       cx="-102.52706"
       cy="-10.426153"
       rx="0.49886176"
       ry="0.51073939"
       transform="rotate(-124.99025)" />
    <path
       style="fill:#000000;stroke:#000000;stroke-width:0.431011;stroke-dasharray:none;stroke-opacity:1"
       d="M 51.093239,83.641802 C 49.28342,81.056206 49.28342,81.056206 49.28342,81.056206"
       id="path5-6-88-4-94-1" />
    <ellipse
       style="fill:#000000;stroke-width:0.0456804"
       id="path4-3-76-37-6-2-3-0"
       cx="-98.195206"
       cy="-6.1627693"
       rx="0.71265972"
       ry="0.74829268"
       transform="rotate(-124.99025)" />
    <ellipse
       style="fill:#ffffff;stroke-width:0.0496297"
       id="path1-2-5-81-8-0-1-7"
       cx="-98.195206"
       cy="-6.1627693"
       rx="0.49886176"
       ry="0.51073939"
       transform="rotate(-124.99025)" />
    <path
       style="fill:#000000;stroke:#000000;stroke-width:0.431011;stroke-dasharray:none;stroke-opacity:1"
       d="M 52.443078,92.962992 C 50.633261,90.377399 50.633261,90.377399 50.633261,90.377399"
       id="path5-6-88-4-94-6" />
    <ellipse
       style="fill:#000000;stroke-width:0.0456804"
       id="path4-3-76-37-6-2-1"
       cx="-106.91502"
       cy="-10.394997"
       rx="0.71265972"
       ry="0.74829268"
       transform="rotate(-124.99025)" />
    <ellipse
       style="fill:#ffffff;stroke-width:0.0496297"
       id="path1-2-5-81-8-0-4"
       cx="-106.91502"
       cy="-10.394997"
       rx="0.49886176"
       ry="0.51073939"
       transform="rotate(-124.99025)" />
    <path
       style="fill:#000000;stroke:#000000;stroke-width:0.431011;stroke-dasharray:none;stroke-opacity:1"
       d="M 55.896044,90.487529 C 54.086225,87.901932 54.086225,87.901932 54.086225,87.901932"
       id="path5-6-88-4-94-6-0" />
    <ellipse
       style="fill:#000000;stroke-width:0.0456804"
       id="path4-3-76-37-6-2-1-6"
       cx="-106.86705"
       cy="-6.1466179"
       rx="0.71265972"
       ry="0.74829268"
       transform="rotate(-124.99025)" />
    <ellipse
       style="fill:#ffffff;stroke-width:0.0496297"
       id="path1-2-5-81-8-0-4-92"
       cx="-106.86705"
       cy="-6.1466179"
       rx="0.49886176"
       ry="0.51073939"
       transform="rotate(-124.99025)" />
    <path
       style="fill:#000000;stroke:#000000;stroke-width:0.431011;stroke-dasharray:none;stroke-opacity:1"
       d="M 54.984819,96.539953 C 53.175,93.954356 53.175,93.954356 53.175,93.954356"
       id="path5-6-88-4-94-7" />
    <ellipse
       style="fill:#000000;stroke-width:0.0456804"
       id="path4-3-76-37-6-8"
       cx="-89.676582"
       cy="11.486284"
       rx="0.71265972"
       ry="0.74829268"
       transform="rotate(-124.99025)" />
    <ellipse
       style="fill:#ffffff;stroke-width:0.0496297"
       id="path1-2-5-81-8-7"
       cx="-89.676582"
       cy="11.486284"
       rx="0.49886176"
       ry="0.51073939"
       transform="rotate(-124.99025)" />
    <ellipse
       style="fill:#000000;stroke-width:0.0456804"
       id="path4-3-76-0-0"
       cx="6.3491902"
       cy="111.11719"
       rx="0.71265972"
       ry="0.74829268"
       transform="rotate(-35.358256)" />
    <ellipse
       style="fill:#ffffff;stroke-width:0.0496297"
       id="path1-2-5-4-7"
       cx="6.3491902"
       cy="111.11719"
       rx="0.49886176"
       ry="0.51073939"
       transform="rotate(-35.358256)" />
    <path
       style="fill:#000000;stroke:#000000;stroke-width:0.431011;stroke-dasharray:none;stroke-opacity:1"
       d="M 66.505321,89.158417 C 69.079252,87.33204 69.079252,87.33204 69.079252,87.33204"
       id="path5-6-6-8" />
    <ellipse
       style="fill:#000000;stroke-width:0.0456804"
       id="path4-3-76-0-0-8"
       cx="1.994929"
       cy="106.87837"
       rx="0.71265972"
       ry="0.74829268"
       transform="rotate(-35.358256)" />
    <ellipse
       style="fill:#ffffff;stroke-width:0.0496297"
       id="path1-2-5-4-7-1"
       cx="1.994929"
       cy="106.87837"
       rx="0.49886176"
       ry="0.51073939"
       transform="rotate(-35.358256)" />
    <path
       style="fill:#000000;stroke:#000000;stroke-width:0.431011;stroke-dasharray:none;stroke-opacity:1"
       d="m 60.501252,88.221214 c 2.57393,-1.826377 2.57393,-1.826377 2.57393,-1.826377"
       id="path5-6-6-8-4" />
    <path
       style="fill:#000000;stroke:#000000;stroke-width:0.431011;stroke-dasharray:none;stroke-opacity:1"
       d="m 70.10123,86.595924 c 2.57393,-1.826377 2.57393,-1.826377 2.57393,-1.826377"
       id="path5-6-9-4" />
    <ellipse
       style="fill:#000000;stroke-width:0.0456804"
       id="path4-3-76-7-5-0"
       cx="1.9621569"
       cy="111.13998"
       rx="0.71265972"
       ry="0.74829268"
       transform="rotate(-35.358256)" />
    <ellipse
       style="fill:#ffffff;stroke-width:0.0496297"
       id="path1-2-5-47-1-4"
       cx="1.9621569"
       cy="111.13998"
       rx="0.49886176"
       ry="0.51073939"
       transform="rotate(-35.358256)" />
    <ellipse
       style="fill:#000000;stroke-width:0.0456804"
       id="path4-3-76-37-6-8-4"
       cx="-110.99899"
       cy="11.665258"
       rx="0.71265972"
       ry="0.74829268"
       transform="rotate(-124.99025)" />
    <ellipse
       style="fill:#ffffff;stroke-width:0.0496297"
       id="path1-2-5-81-8-7-9"
       cx="-110.99899"
       cy="11.665258"
       rx="0.49886176"
       ry="0.51073939"
       transform="rotate(-124.99025)" />
    <path
       style="fill:#000000;stroke:#000000;stroke-width:0.431011;stroke-dasharray:none;stroke-opacity:1"
       d="m 63.025886,69.869838 c -1.809812,-2.5856 -1.809812,-2.5856 -1.809812,-2.5856"
       id="path5-6-88-4-4" />
    <ellipse
       style="fill:#000000;stroke-width:0.0456804"
       id="path4-3-76-37-6-4-0"
       cx="-93.780151"
       cy="11.496084"
       rx="0.71265972"
       ry="0.74829268"
       transform="rotate(-124.99025)" />
    <ellipse
       style="fill:#ffffff;stroke-width:0.0496297"
       id="path1-2-5-81-8-8-5"
       cx="-93.780151"
       cy="11.496084"
       rx="0.49886176"
       ry="0.51073939"
       transform="rotate(-124.99025)" />
    <path
       style="fill:#000000;stroke:#000000;stroke-width:0.431011;stroke-dasharray:none;stroke-opacity:1"
       d="M 65.38706,73.226062 C 63.57725,70.640461 63.57725,70.640461 63.57725,70.640461"
       id="path5-6-88-4-9-4" />
    <ellipse
       style="fill:#000000;stroke-width:0.0456804"
       id="path4-3-76-37-6-2-5"
       cx="-98.193321"
       cy="11.552511"
       rx="0.71265972"
       ry="0.74829268"
       transform="rotate(-124.99025)" />
    <ellipse
       style="fill:#ffffff;stroke-width:0.0496297"
       id="path1-2-5-81-8-0-7"
       cx="-98.193321"
       cy="11.552511"
       rx="0.49886176"
       ry="0.51073939"
       transform="rotate(-124.99025)" />
    <path
       style="fill:#000000;stroke:#000000;stroke-width:0.431011;stroke-dasharray:none;stroke-opacity:1"
       d="m 67.96397,76.809192 c -1.809811,-2.5856 -1.809811,-2.5856 -1.809811,-2.5856"
       id="path5-6-88-4-94-3" />
    <ellipse
       style="fill:#000000;stroke-width:0.0456804"
       id="path4-3-76-37-6-2-3-3"
       cx="-102.27189"
       cy="11.576632"
       rx="0.71265972"
       ry="0.74829268"
       transform="rotate(-124.99025)" />
    <ellipse
       style="fill:#ffffff;stroke-width:0.0496297"
       id="path1-2-5-81-8-0-1-3"
       cx="-102.27189"
       cy="11.576632"
       rx="0.49886176"
       ry="0.51073939"
       transform="rotate(-124.99025)" />
    <path
       style="fill:#000000;stroke:#000000;stroke-width:0.431011;stroke-dasharray:none;stroke-opacity:1"
       d="M 70.322529,80.136731 C 68.512717,77.551129 68.512717,77.551129 68.512717,77.551129"
       id="path5-6-88-4-94-6-1" />
    <ellipse
       style="fill:#000000;stroke-width:0.0456804"
       id="path4-3-76-37-6-2-1-8"
       cx="-106.65984"
       cy="11.60779"
       rx="0.71265972"
       ry="0.74829268"
       transform="rotate(-124.99025)" />
    <ellipse
       style="fill:#ffffff;stroke-width:0.0496297"
       id="path1-2-5-81-8-0-4-9"
       cx="-106.65984"
       cy="11.60779"
       rx="0.49886176"
       ry="0.51073939"
       transform="rotate(-124.99025)" />
    <path
       style="fill:#000000;stroke:#000000;stroke-width:0.431011;stroke-dasharray:none;stroke-opacity:1"
       d="M 72.864269,83.713689 C 71.054457,81.12809 71.054457,81.12809 71.054457,81.12809"
       id="path5-6-88-4-94-7-5" />
    <ellipse
       style="fill:#000000;stroke-width:0.0456804"
       id="path4-3-76-37-6-2-1-8-1"
       cx="-106.61314"
       cy="7.1382732"
       rx="0.71265972"
       ry="0.74829268"
       transform="rotate(-124.99025)" />
    <ellipse
       style="fill:#ffffff;stroke-width:0.0496297"
       id="path1-2-5-81-8-0-4-9-7"
       cx="-106.61314"
       cy="7.1382732"
       rx="0.49886176"
       ry="0.51073939"
       transform="rotate(-124.99025)" />
    <path
       style="fill:#000000;stroke:#000000;stroke-width:0.431011;stroke-dasharray:none;stroke-opacity:1"
       d="m 69.160618,86.328066 c -1.809812,-2.5856 -1.809812,-2.5856 -1.809812,-2.5856"
       id="path5-6-88-4-94-7-5-5" />
    <ellipse
       style="fill:#000000;stroke-width:0.0456804"
       id="path4-3-76-37-6-2-1-8-0"
       cx="-106.84802"
       cy="-1.7281475"
       rx="0.71265972"
       ry="0.74829268"
       transform="rotate(-124.99025)" />
    <ellipse
       style="fill:#ffffff;stroke-width:0.0496297"
       id="path1-2-5-81-8-0-4-9-9"
       cx="-106.84802"
       cy="-1.7281475"
       rx="0.49886176"
       ry="0.51073939"
       transform="rotate(-124.99025)" />
    <path
       style="fill:#000000;stroke:#000000;stroke-width:0.431011;stroke-dasharray:none;stroke-opacity:1"
       d="m 62.046723,91.515168 c -1.809812,-2.5856 -1.809812,-2.5856 -1.809812,-2.5856"
       id="path5-6-88-4-94-7-5-3" />
    <ellipse
       style="fill:#000000;stroke-width:0.0456804"
       id="path4-3-76-37-1"
       cx="-2.4716489"
       cy="-93.851524"
       rx="0.71265972"
       ry="0.74829268"
       transform="rotate(144.88499)" />
    <ellipse
       style="fill:#ffffff;stroke-width:0.0496297"
       id="path1-2-5-81-87"
       cx="-2.4716489"
       cy="-93.851524"
       rx="0.49886182"
       ry="0.51073939"
       transform="rotate(144.88499)" />
    <path
       style="fill:#000000;stroke:#000000;stroke-width:0.431011;stroke-dasharray:none;stroke-opacity:1"
       d="m 58.991217,73.150358 c -2.581666,1.815419 -2.581666,1.815419 -2.581666,1.815419"
       id="path5-6-88-3" />
    <ellipse
       style="fill:#000000;stroke-width:0.0456804"
       id="path4-3-76-37-0-4"
       cx="1.9722178"
       cy="-111.18133"
       rx="0.71265972"
       ry="0.74829268"
       transform="rotate(144.88499)" />
    <ellipse
       style="fill:#ffffff;stroke-width:0.0496297"
       id="path1-2-5-81-3-9"
       cx="1.9722178"
       cy="-111.18133"
       rx="0.49886182"
       ry="0.51073939"
       transform="rotate(144.88499)" />
    <ellipse
       style="fill:#000000;stroke-width:0.0456804"
       id="path4-3-76-37-8"
       cx="10.56015"
       cy="-111.33337"
       rx="0.71265972"
       ry="0.74829268"
       transform="rotate(144.88499)" />
    <ellipse
       style="fill:#ffffff;stroke-width:0.0496297"
       id="path1-2-5-81-77"
       cx="10.56015"
       cy="-111.33337"
       rx="0.49886182"
       ry="0.51073939"
       transform="rotate(144.88499)" />
    <path
       style="fill:#000000;stroke:#000000;stroke-width:0.431011;stroke-dasharray:none;stroke-opacity:1"
       d="M 58.387151,94.946637 C 55.805467,96.76204 55.805467,96.76204 55.805467,96.76204"
       id="path5-6-88-5" />
    <ellipse
       style="fill:#000000;stroke-width:0.0456804"
       id="path4-3-76-37-1-4"
       cx="6.3766232"
       cy="-93.904175"
       rx="0.71265972"
       ry="0.74829268"
       transform="rotate(144.88499)" />
    <ellipse
       style="fill:#ffffff;stroke-width:0.0496297"
       id="path1-2-5-81-87-9"
       cx="6.3766232"
       cy="-93.904175"
       rx="0.49886182"
       ry="0.51073939"
       transform="rotate(144.88499)" />
    <path
       style="fill:#000000;stroke:#000000;stroke-width:0.431011;stroke-dasharray:none;stroke-opacity:1"
       d="m 51.783643,78.283107 c -2.581665,1.81542 -2.581665,1.81542 -2.581665,1.81542"
       id="path5-6-88-3-0" />
    <ellipse
       style="fill:#000000;stroke-width:0.0456804"
       id="path4-3-76-37-6-2-12-4"
       cx="-102.40999"
       cy="-1.8331356"
       rx="0.71265972"
       ry="0.74829268"
       transform="rotate(-124.99025)" />
    <ellipse
       style="fill:#ffffff;stroke-width:0.0496297"
       id="path1-2-5-81-8-0-5-3"
       cx="-102.40999"
       cy="-1.8331356"
       rx="0.49886176"
       ry="0.51073939"
       transform="rotate(-124.99025)" />
    <path
       style="fill:#000000;stroke:#000000;stroke-width:0.431011;stroke-dasharray:none;stroke-opacity:1"
       d="m 56.632249,85.314573 c -2.581671,1.815413 -2.581671,1.815413 -2.581671,1.815413"
       id="path5-6-88-3-0-3" />
    <ellipse
       style="fill:#000000;stroke-width:0.0456804"
       id="path4-3-76-37-1-5"
       cx="1.9193766"
       cy="-98.188698"
       rx="0.71265972"
       ry="0.74829268"
       transform="rotate(144.88499)" />
    <ellipse
       style="fill:#ffffff;stroke-width:0.0496297"
       id="path1-2-5-81-87-6"
       cx="1.9193766"
       cy="-98.188698"
       rx="0.49886182"
       ry="0.51073939"
       transform="rotate(144.88499)" />
    <path
       style="fill:#000000;stroke:#000000;stroke-width:0.431011;stroke-dasharray:none;stroke-opacity:1"
       d="m 57.894209,79.223949 c -2.581665,1.815419 -2.581665,1.815419 -2.581665,1.815419"
       id="path5-6-88-3-8" />
    <ellipse
       style="fill:#000000;stroke-width:0.0456804"
       id="path4-3-76-37-1-53"
       cx="-6.8806648"
       cy="-93.85614"
       rx="0.71265972"
       ry="0.74829268"
       transform="rotate(144.88499)" />
    <ellipse
       style="fill:#ffffff;stroke-width:0.0496297"
       id="path1-2-5-81-87-1"
       cx="-6.8806648"
       cy="-93.85614"
       rx="0.49886182"
       ry="0.51073939"
       transform="rotate(144.88499)" />
    <path
       style="fill:#000000;stroke:#000000;stroke-width:0.431011;stroke-dasharray:none;stroke-opacity:1"
       d="m 62.600464,70.61796 c -2.581658,1.815415 -2.581658,1.815415 -2.581658,1.815415"
       id="path5-6-88-3-01" />
    <ellipse
       style="fill:#000000;stroke-width:0.0456804"
       id="path4-3-76-37-1-9-6"
       cx="-2.4959486"
       cy="-98.170929"
       rx="0.71265972"
       ry="0.74829268"
       transform="rotate(144.88499)" />
    <ellipse
       style="fill:#ffffff;stroke-width:0.0496297"
       id="path1-2-5-81-87-90-9"
       cx="-2.4959486"
       cy="-98.170929"
       rx="0.49886182"
       ry="0.51073939"
       transform="rotate(144.88499)" />
    <path
       style="fill:#000000;stroke:#000000;stroke-width:0.431011;stroke-dasharray:none;stroke-opacity:1"
       d="M 61.495714,76.669634 C 58.914055,78.48505 58.914055,78.48505 58.914055,78.48505"
       id="path5-6-88-3-89-2" />
    <ellipse
       style="fill:#000000;stroke-width:0.0456804"
       id="path4-3-76-37-1-9-6-9"
       cx="-6.8783035"
       cy="-98.146385"
       rx="0.71265972"
       ry="0.74829268"
       transform="rotate(144.88499)" />
    <ellipse
       style="fill:#ffffff;stroke-width:0.0496297"
       id="path1-2-5-81-87-90-9-4"
       cx="-6.8783035"
       cy="-98.146385"
       rx="0.49886182"
       ry="0.51073939"
       transform="rotate(144.88499)" />
    <path
       style="fill:#000000;stroke:#000000;stroke-width:0.431011;stroke-dasharray:none;stroke-opacity:1"
       d="m 67.706025,77.45992 c -2.58166,1.815425 -2.58166,1.815425 -2.58166,1.815425"
       id="path5-6-88-3-89-2-9" />
    <path
       style="fill:#000000;stroke:#000000;stroke-width:0.431011;stroke-dasharray:none;stroke-opacity:1"
       d="M 53.508451,87.103364 C 51.698632,84.517768 51.698632,84.517768 51.698632,84.517768"
       id="path5-6-88-4-94-9" />
    <ellipse
       style="fill:#000000;stroke-width:0.0456804"
       id="path4-3-76-37-6-2-3-8"
       cx="-102.41606"
       cy="-6.1690941"
       rx="0.71265972"
       ry="0.74829268"
       transform="rotate(-124.99025)" />
    <ellipse
       style="fill:#ffffff;stroke-width:0.0496297"
       id="path1-2-5-81-8-0-1-1"
       cx="-102.41606"
       cy="-6.1690941"
       rx="0.49886176"
       ry="0.51073939"
       transform="rotate(-124.99025)" />
    <ellipse
       style="fill:#000000;stroke-width:0.0456804"
       id="path4-3-76-37-6-2-12-0"
       cx="-102.35223"
       cy="7.2295094"
       rx="0.71265972"
       ry="0.74829268"
       transform="rotate(-124.99025)" />
    <ellipse
       style="fill:#ffffff;stroke-width:0.0496297"
       id="path1-2-5-81-8-0-5-9"
       cx="-102.35223"
       cy="7.2295094"
       rx="0.49886176"
       ry="0.51073939"
       transform="rotate(-124.99025)" />
    <path
       style="fill:#000000;stroke:#000000;stroke-width:0.431011;stroke-dasharray:none;stroke-opacity:1"
       d="M 64.023696,80.070401 C 61.44202,81.885819 61.44202,81.885819 61.44202,81.885819"
       id="path5-6-88-3-0-9" />
    <ellipse
       style="fill:#000000;stroke-width:0.0456804"
       id="path4-3-76-37-6-2-12-0-8"
       cx="-102.39701"
       cy="2.6442204"
       rx="0.71265972"
       ry="0.74829268"
       transform="rotate(-124.99025)" />
    <ellipse
       style="fill:#ffffff;stroke-width:0.0496297"
       id="path1-2-5-81-8-0-5-9-0"
       cx="-102.39701"
       cy="2.6442204"
       rx="0.49886176"
       ry="0.51073939"
       transform="rotate(-124.99025)" />
    <path
       style="fill:#000000;stroke:#000000;stroke-width:0.431011;stroke-dasharray:none;stroke-opacity:1"
       d="m 60.292887,82.736458 c -2.581663,1.815408 -2.581663,1.815408 -2.581663,1.815408"
       id="path5-6-88-3-0-9-7" />
    <text
       xml:space="preserve"
       style="font-style:normal;font-variant:normal;font-weight:300;font-stretch:normal;font-size:14.8167px;font-family:'Yu Gothic UI';-inkscape-font-specification:'Yu Gothic UI, Light';font-variant-ligatures:normal;font-variant-caps:normal;font-variant-numeric:normal;font-variant-east-asian:normal;text-align:center;text-anchor:middle;fill:#000000;stroke:#2e8555;stroke-width:1.165;stroke-dasharray:none;stroke-opacity:1"
       x="110"
       y="100"
       id="text5"><tspan
         id="tspan5"
         style="font-style:normal;font-variant:normal;font-weight:300;font-stretch:normal;font-size:14.8167px;font-family:'Yu Gothic UI';-inkscape-font-specification:'Yu Gothic UI, Light';font-variant-ligatures:normal;font-variant-caps:normal;font-variant-numeric:normal;font-variant-east-asian:normal;stroke:#2e8555;stroke-width:1.165;stroke-opacity:1"
         x="110"
         y="100">laustincode</tspan></text>
    <path
       style="fill:none;stroke:#2e8555;stroke-width:0.664998;stroke-dasharray:none;stroke-opacity:1"
       d="m 51.225891,71.764284 2.208464,3.112411 -7.450979,5.290619 9.816196,13.859574 3.545172,-2.529429 -2.544725,-3.586305 7.164159,-5.197691 2.520646,3.960602 -3.537696,2.267261 2.164313,3.312897"
       id="path5" />
  </g>
</svg>
